<svg width="162" height="206" viewBox="0 0 162 206" fill="none" xmlns="http://www.w3.org/2000/svg">
<path d="M80.2866 35.2271C58.0047 35.2271 39.9766 52.4723 39.9766 73.7233C39.9766 94.9743 80.2866 155.876 80.2866 155.876C80.2866 155.876 120.597 94.9743 120.597 73.7233C120.597 52.4723 102.569 35.2271 80.2866 35.2271Z" fill="white"/>
<path d="M70.7365 89.3525C70.9607 89.8443 71.3051 89.6105 71.6655 89.6024C72.2421 89.5863 72.5945 89.1993 73.115 88.9735C72.6585 88.8364 72.2741 88.7155 71.8657 88.5865C71.7376 88.8526 71.6014 89.1428 71.4573 89.4411C71.4172 89.4411 71.3692 89.4411 71.3291 89.4411C71.2811 89.2235 71.217 89.0058 71.201 88.7881C71.185 88.5301 71.0969 88.4011 70.8246 88.393C70.6724 88.3849 70.5203 88.2882 70.3121 88.2076C70.1599 88.6107 69.9837 89.0622 69.7755 89.6185C69.4231 89.0058 69.4872 88.4333 69.5192 87.877C69.0548 87.6109 69.0548 87.6109 68.7664 88.4897C68.7104 88.3527 68.6143 88.2156 68.6063 88.0786C68.5742 87.7399 68.4381 87.5303 68.0777 87.4335C67.7894 87.3448 67.6933 87.3771 67.6853 87.6915C67.6773 88.0624 67.6373 88.4414 67.5732 88.8123C67.5492 88.9816 67.4451 89.1428 67.381 89.3121C67.341 89.3121 67.3009 89.3121 67.2689 89.3121C67.2208 89.159 67.1648 89.0058 67.1167 88.8526C66.9806 88.393 66.8605 87.9254 66.7163 87.4658C66.6602 87.2803 66.5722 87.1755 66.3319 87.2562C66.1717 87.3126 65.9795 87.2642 65.7153 87.2642C65.6512 87.4577 65.5551 87.7238 65.459 87.9899C65.4189 87.9979 65.3709 88.006 65.3309 88.014C65.2508 87.7802 65.1787 87.5464 65.0826 87.3126C65.0265 87.1755 64.9465 87.0546 64.8744 86.9256C64.7863 87.0546 64.7062 87.1917 64.6181 87.3207C64.5861 87.3771 64.554 87.4335 64.474 87.5867C64.3138 87.2723 64.1937 87.0223 64.0575 86.7563C62.9684 86.716 63.3288 87.6915 63.0805 88.2398C63.0405 88.2479 63.0004 88.2559 62.9524 88.264C62.8643 88.014 62.7361 87.7802 62.7041 87.5222C62.6641 87.2158 62.7281 86.9095 62.7201 86.595C62.7201 86.4902 62.648 86.3934 62.608 86.2886C62.4959 86.3451 62.3277 86.3693 62.2877 86.4499C62.1916 86.6918 62.1435 86.9578 61.9914 87.24C61.9353 87.0143 61.8552 86.7885 61.8392 86.5628C61.7912 85.8694 61.7511 85.184 61.7271 84.4907C61.6951 83.7489 61.9513 83.3941 62.6561 83.1281C62.9203 83.0232 63.1606 82.8378 63.4329 82.733C63.6571 82.6443 63.9374 82.5314 64.1536 82.5879C64.7302 82.7249 65.2988 82.9104 65.8434 83.1442C66.2919 83.3377 66.7243 83.4506 67.2208 83.4586C67.6853 83.4667 68.1498 83.636 68.5983 83.7973C68.9266 83.9182 69.1989 84.0069 69.5433 83.8214C69.7194 83.7328 70.0238 83.765 70.224 83.8537C70.7045 84.0553 71.177 84.0149 71.6735 83.9424C72.4503 83.8376 73.2271 83.7973 74.0119 83.7086C74.2442 83.6844 74.4844 83.6279 74.6926 83.5312C75.037 83.3699 75.3734 83.1764 75.6937 82.9668C75.8939 82.8297 76.0541 82.6201 76.2463 82.4669C76.6947 82.096 77.1993 82.0557 77.7519 82.2089C77.9441 82.2653 78.1763 82.1767 78.3925 82.1605C78.5207 82.1525 78.6568 82.1363 78.7849 82.1283C79.1854 82.096 79.5858 82.0638 79.9942 82.0396C80.3386 82.0154 80.6909 81.9267 81.0113 81.9993C81.708 82.1605 82.1885 81.7655 82.677 81.4188C82.7731 81.3543 82.7971 80.9673 82.701 80.8705C82.2205 80.3787 82.2606 79.8465 82.4448 79.266C82.653 78.6049 83.0134 78.0808 83.6781 77.8309C84.2466 77.6132 84.4228 77.2826 84.2867 76.694C84.2707 76.6376 84.2306 76.5811 84.1826 76.5408C83.9343 76.3151 83.6941 76.0732 83.4218 75.8797C83.3257 75.8152 83.1415 75.8313 83.0134 75.8797C82.9333 75.9039 82.8292 76.0571 82.8452 76.1377C82.9413 76.7263 82.4768 77.0972 82.3006 77.589C82.1244 77.21 81.8601 76.8553 81.9563 76.4199C82.0203 76.1216 81.8842 75.9603 81.6439 75.9361C81.4918 75.92 81.3076 76.0571 81.1634 76.1538C81.0113 76.2586 80.8591 76.3796 80.739 76.5247C80.6189 76.6698 80.5308 76.8472 80.3946 77.0649C80.2104 76.7021 80.3466 76.3554 80.3786 76.0329C80.4026 75.8152 80.5468 75.6056 80.5868 75.3879C80.6108 75.2508 80.5788 75.0734 80.4987 74.9605C80.4587 74.9041 80.2585 74.9444 80.1383 74.9767C79.8821 75.0492 79.6338 75.1379 79.3535 75.2347C79.2014 74.759 79.5377 74.4687 79.81 74.1865C80.0903 73.8963 80.4347 73.6625 80.8351 73.3399C80.6829 73.2593 80.5628 73.2029 80.3626 73.0981C80.771 72.9852 81.0353 72.8723 81.3156 72.8481C81.692 72.8239 81.7801 72.574 81.8281 72.2999C82.0203 71.1146 82.5168 70.0745 83.2136 69.1231C83.4618 68.7845 83.8142 68.5265 84.1025 68.2201C84.2386 68.0831 84.3988 67.9218 84.4469 67.7525C84.7992 66.4221 85.7202 65.6239 86.8814 65.0273C86.9134 65.0112 86.9535 64.9951 86.9695 64.987C86.8574 63.9469 86.7533 62.9149 86.6412 61.8667C85.9765 61.512 85.6641 60.7863 85.2157 60.1736C85.1756 60.1171 85.1356 60.0446 85.0795 60.0123C84.5189 59.6575 83.8703 59.3834 83.4058 58.9319C82.9573 58.4965 82.4207 58.3595 81.9002 58.1337C81.4597 57.9402 81.0193 57.7467 80.5948 57.5209C80.4106 57.4242 80.2665 57.2468 80.0663 57.0694C79.794 56.9888 79.4416 56.9082 79.1133 56.7792C78.4966 56.5373 77.912 56.2309 77.2874 56.0293C76.8149 55.8761 76.2943 55.86 75.8058 55.7471C75.6056 55.6988 75.4214 55.5778 75.2372 55.4811C75.1732 55.4488 75.1091 55.3924 75.045 55.3924C74.3723 55.3682 73.6436 55.4972 73.0269 55.2956C72.2261 55.0296 71.3772 55.2795 70.6324 54.9247C69.7275 54.4894 68.7905 54.7312 67.8695 54.6667C67.7654 54.6587 67.6453 54.699 67.5492 54.6667C66.46 54.2878 65.435 54.7635 64.3779 54.8683C64.1056 54.8925 63.8253 54.8764 63.545 54.8844C63.4409 54.8844 63.3368 54.9006 63.2327 54.9167C62.3597 55.0699 61.4788 55.2231 60.6139 55.3924C60.3336 55.4488 60.0533 55.5536 59.781 55.6504C59.1244 55.8761 58.4356 56.0051 57.795 56.3196C56.7058 56.8598 55.5206 57.2065 54.4635 57.8273C53.7748 58.2304 53.038 58.5449 52.3012 58.8593C52.101 58.948 51.8367 58.8835 51.6045 58.8835C51.6926 58.6739 51.7406 58.4159 51.8928 58.2708C52.077 58.0853 52.3573 57.9886 52.5815 57.8354C52.6856 57.7628 52.8057 57.658 52.8458 57.5451C52.9579 57.2387 53.1341 57.0452 53.4785 57.013C53.5906 57.0049 53.7187 56.892 53.7828 56.7953C53.991 56.4486 54.2312 56.1906 54.5836 56.247C54.8078 56.0455 54.992 55.8923 55.1682 55.731C55.2563 55.6504 55.3284 55.5617 55.4085 55.473C55.4565 55.4166 55.4886 55.3118 55.5526 55.2876C56.0812 55.0457 56.6097 54.8199 57.1383 54.578C57.2504 54.5216 57.3705 54.4571 57.4666 54.3845C57.9071 54.054 58.4517 53.8847 58.812 53.4009C58.9081 53.2638 59.2845 53.3122 59.5328 53.3203C59.781 53.3203 59.9252 53.2396 60.0934 53.0381C60.2615 52.8365 60.5499 52.6753 60.8061 52.6188C61.1665 52.5462 61.5349 52.6833 61.8232 52.2479C61.9433 52.0625 62.3838 52.1028 62.6801 52.0141C62.8322 51.9738 63.0645 51.9254 63.1125 51.8125C63.3288 51.3449 63.7132 51.4094 64.0976 51.3933C64.3298 51.3852 64.5701 51.3046 64.8023 51.2562C65.0826 51.1998 65.3709 51.0708 65.6432 51.0869C65.9155 51.1111 66.1077 51.0869 66.2758 50.8692C66.3159 50.8208 66.38 50.7563 66.436 50.7563C67.1087 50.7321 67.6693 50.1274 68.4061 50.3693C68.4862 50.3935 68.5983 50.3209 68.6864 50.2887C69.303 50.0629 69.9116 49.8211 70.5283 49.6195C70.6965 49.563 70.9127 49.5792 71.0809 49.6356C71.5053 49.7727 71.8497 49.6356 72.2341 49.4663C72.4503 49.3695 72.7306 49.4099 72.9789 49.3937C73.2191 49.3776 73.4594 49.3776 73.6996 49.3615C73.7477 49.3615 73.8037 49.305 73.8518 49.3131C74.7087 49.5469 75.6376 48.8777 76.4705 49.5389C76.5666 49.6195 76.8069 49.5792 76.951 49.5147C77.2874 49.3695 77.5757 49.2567 77.912 49.5469C78.0081 49.6276 78.2324 49.555 78.4005 49.563C78.6488 49.5792 78.889 49.5953 79.1373 49.6276C79.4576 49.6679 79.778 49.7727 80.0983 49.7646C80.4587 49.7566 80.763 49.7888 81.0513 50.0468C81.2195 50.1919 81.5078 50.2484 81.748 50.2564C82.1565 50.2645 82.5409 50.2403 82.8372 50.6031C82.8692 50.6435 82.9573 50.6515 83.0214 50.6435C83.0854 50.6435 83.1815 50.579 83.2136 50.6031C83.606 50.9337 84.1185 50.8531 84.559 51.0224C84.8473 51.1353 85.0955 51.3368 85.3678 51.482C85.4399 51.5223 85.552 51.5142 85.6321 51.482C85.9845 51.361 86.2007 51.5223 86.3368 51.8287C86.465 52.1189 86.6492 52.256 86.9775 52.2641C87.1377 52.2721 87.3939 52.3769 87.442 52.5059C87.5781 52.8526 87.8104 52.9171 88.1307 52.9171C88.2268 52.9171 88.3309 52.9816 88.427 53.03C89.7724 53.7637 91.1178 54.5055 92.4713 55.2231C93.9448 56.0051 95.066 57.1823 96.1551 58.4078C96.7718 59.1093 97.3644 59.8269 98.0451 60.4961C97.9089 60.2542 97.7408 60.0284 97.6367 59.7704C97.5566 59.585 97.4685 59.3108 97.5486 59.1738C97.8529 58.6497 98.1892 58.1337 98.5736 57.6661C98.7899 57.4081 99.1182 57.3597 99.4466 57.5935C99.5667 57.6822 99.7429 57.7064 99.903 57.7306C100.239 57.787 100.552 57.8193 100.688 58.2304C100.728 58.3514 101.024 58.4078 101.208 58.4481C101.745 58.553 101.913 58.6416 102.073 58.9722C101.441 59.2544 101.473 59.2625 101.945 59.843C102.834 60.9315 103.411 62.1489 103.17 63.6163C103.154 63.7292 103.218 63.8743 103.275 63.9872C103.667 64.7209 103.659 65.4546 103.243 66.1722C102.914 66.7366 102.642 67.3574 101.913 67.559C103.218 71.1469 103.21 74.7106 101.945 78.3066C102.882 78.4678 103.595 78.9596 104.204 79.6288C104.22 79.645 104.244 79.6692 104.26 79.6853C104.748 80.419 105.269 81.1124 105.869 81.7655C106.166 82.088 106.262 82.6685 106.318 83.1442C106.39 83.8053 106.342 84.4826 106.334 85.1599C106.326 85.7484 106.542 86.0709 107.071 86.2806C107.375 86.4015 107.671 86.5547 107.951 86.724C108.104 86.8208 108.216 86.9981 108.344 87.1352C108.32 87.1594 108.304 87.1917 108.28 87.2158C108.12 87.1836 107.967 87.1594 107.759 87.1191C107.791 87.2078 107.791 87.2723 107.823 87.2884C108.168 87.5464 108.512 87.8044 108.872 88.0463C109.361 88.3849 109.241 88.9332 109.369 89.425C108.952 89.0541 108.28 89.3928 107.959 88.8284C107.919 88.7558 107.655 88.8203 107.591 88.8203C107.543 89.5379 107.503 90.2071 107.463 90.8682C107.431 90.8844 107.391 90.8924 107.359 90.9086C107.103 90.6022 106.846 90.2958 106.582 89.9975C106.502 89.9088 106.326 89.7878 106.302 89.812C106.19 89.9007 106.045 90.0539 106.061 90.1587C106.102 90.4329 105.981 90.5377 105.765 90.6506C105.637 90.7151 105.549 90.8682 105.445 90.9892C105.349 91.1021 105.261 91.2311 105.173 91.352C105.133 91.3439 105.092 91.3359 105.052 91.3278C105.036 91.1263 105.004 90.9247 104.996 90.7231C104.98 90.4329 104.996 90.1426 104.98 89.8523C104.956 89.5298 104.764 89.4492 104.5 89.6347C104.436 89.683 104.372 89.7475 104.3 89.7556C103.851 89.8362 103.843 89.8362 103.691 90.2958C103.611 90.1507 103.547 90.07 103.515 89.9652C103.387 89.4895 103.627 88.8284 104.043 88.5704C104.484 88.3043 104.548 87.5303 104.324 87.1675C104.067 86.7563 103.795 86.3612 103.547 85.95C103.339 85.6033 103.243 85.2566 103.379 84.8373C103.523 84.3858 103.275 84.0391 102.818 83.9182C102.097 83.7328 101.385 83.5393 100.632 83.3296C100.335 83.7569 100.015 84.2326 99.6788 84.7003C98.8219 85.8855 97.7568 86.7805 96.2993 87.1272C96.1151 87.1675 95.9469 87.3126 95.7867 87.4174C95.5305 87.5867 95.2902 87.7964 94.9458 87.6593C94.8898 87.6351 94.7697 87.6996 94.7216 87.7641C92.7115 90.457 90.1809 92.4888 87.0175 93.6257C85.6882 94.1014 84.3187 94.4481 82.9413 94.7625C82.4608 94.8673 81.9162 94.7222 81.4117 94.6335C81.2035 94.5932 81.0513 94.5529 80.8671 94.698C79.2574 95.9316 77.4876 96.1735 75.5656 95.6252C74.3643 95.2866 73.163 95.2221 71.9378 95.5769C71.5694 95.6817 71.1449 95.5849 70.7525 95.5849C69.9917 95.5769 69.2389 95.5688 68.4781 95.5688C68.4141 95.5688 68.342 95.5849 68.2859 95.6172C67.349 96.1816 66.3319 95.8268 65.3469 95.8671C64.2417 95.9155 63.3768 95.3108 62.592 94.5932C62.2957 94.3191 62.3357 93.9321 62.6801 93.5692C62.7602 93.4806 62.8162 93.3435 62.8322 93.2226C62.8883 92.8355 62.9203 92.4405 62.9604 92.0454C63.0164 92.0373 63.0725 92.0293 63.1205 92.0212C63.1766 92.1905 63.2166 92.376 63.2967 92.5372C63.3848 92.7065 63.513 92.9887 63.6331 92.9968C63.8653 93.0049 64.1696 92.9323 64.1696 92.5533C64.1696 92.4082 64.2657 92.2631 64.4179 92.0938C64.498 92.2712 64.5701 92.4485 64.6501 92.642C64.9865 92.384 65.3469 92.1583 65.6352 91.86C65.7713 91.7148 65.7633 91.4326 65.8194 91.2149C65.9075 90.8924 65.9155 90.5296 66.3159 90.2555C66.3559 90.8279 66.388 91.3359 66.428 91.8358C66.4841 91.8519 66.5321 91.868 66.5882 91.8761C66.7083 91.6503 66.8204 91.4165 66.9806 91.1101C67.0847 91.3601 67.1568 91.5374 67.2368 91.7229C67.381 91.7229 67.5171 91.7229 67.6533 91.7229C67.7414 91.4649 67.8215 91.223 67.9416 90.8521C68.0537 91.0779 68.0857 91.2149 68.1658 91.3036C68.2539 91.4004 68.3901 91.5133 68.5102 91.5133C68.7104 91.5213 68.8625 91.4165 68.8545 91.1666C68.8465 91.0053 68.8866 90.836 68.9026 90.6102C69.1268 90.7473 69.279 90.8441 69.4392 90.9489C69.5272 90.7876 69.6153 90.6344 69.7194 90.449C70.4402 90.8279 70.0077 90.07 70.1359 89.9168C70.3922 89.933 70.5924 89.9491 70.7846 89.9572C70.7045 89.7878 70.7205 89.5702 70.7365 89.3525ZM85.0315 72.8884C84.9994 72.8804 84.9674 72.8723 84.9434 72.8562C84.4789 73.1868 84.0144 73.5254 83.5019 73.8882C83.614 74.2107 83.7021 74.5655 83.8703 74.8799C84.0544 75.2347 84.3107 75.5491 84.1746 75.9926C84.1505 76.0813 84.2066 76.2022 84.2306 76.307C84.4949 75.1541 84.7592 74.0253 85.0315 72.8884Z" fill="#20113D"/>
<g filter="url(#filter0_d_1_521)">
<path d="M80.6744 29C54.3217 29 33 48.9154 33 73.4569C33 97.9984 80.6744 168.33 80.6744 168.33C80.6744 168.33 128.349 97.9984 128.349 73.4569C128.349 48.9154 107.027 29 80.6744 29Z" stroke="white" stroke-width="6" stroke-miterlimit="10" stroke-linejoin="round"/>
</g>
<defs>
<filter id="filter0_d_1_521" x="0" y="0" width="161.349" height="205.33" filterUnits="userSpaceOnUse" color-interpolation-filters="sRGB">
<feFlood flood-opacity="0" result="BackgroundImageFix"/>
<feColorMatrix in="SourceAlpha" type="matrix" values="0 0 0 0 0 0 0 0 0 0 0 0 0 0 0 0 0 0 127 0" result="hardAlpha"/>
<feOffset dy="4"/>
<feGaussianBlur stdDeviation="15"/>
<feColorMatrix type="matrix" values="0 0 0 0 0 0 0 0 0 0 0 0 0 0 0 0 0 0 0.5 0"/>
<feBlend mode="normal" in2="BackgroundImageFix" result="effect1_dropShadow_1_521"/>
<feBlend mode="normal" in="SourceGraphic" in2="effect1_dropShadow_1_521" result="shape"/>
</filter>
</defs>
</svg>
